# xmcd CD database file
#
# Track frame offsets:
#	150
#	16264
#	35553
#	47041
#	61539
#	79629
#	91285
#	105268
#	121913
#	132615
#
# Disc length: 1936 seconds
#
# Revision: 0
# Processed by: cddbd v1.5.2PL0 Copyright (c) Steve Scherf et al.
# Submitted via: CDex 1.70beta2
#
DISCID=72078e0a
DTITLE=Amy Winehouse - Back to Black
DYEAR=2006
DGENRE=Jazz
TTITLE0=Rehab
TTITLE1=You know I'm no good
TTITLE2=Me and Mr Jones
TTITLE3=Just friends
TTITLE4=Back to black
TTITLE5=Love is a losing game
TTITLE6=Tears dry on their own
TTITLE7=Wake up alone
TTITLE8=Some unholy war
TTITLE9=He can only hold her
EXTD=YEAR: 2006
EXTT0=
EXTT1=
EXTT2=
EXTT3=
EXTT4=
EXTT5=
EXTT6=
EXTT7=
EXTT8=
EXTT9=
PLAYORDER=
